<?xml version="1.0" encoding="UTF-8" standalone="no"?>
<!DOCTYPE svg PUBLIC "-//W3C//DTD SVG 1.1//EN" "http://www.w3.org/Graphics/SVG/1.1/DTD/svg11.dtd">
<svg version="1.1" xmlns="http://www.w3.org/2000/svg" xmlns:xlink="http://www.w3.org/1999/xlink" preserveAspectRatio="xMidYMid meet" viewBox="0 0 1000 1000" width="1000" height="1000"><defs><path d="M875 500C875 706.97 706.96 875 500 875C293.03 875 125 706.97 125 500C125 293.03 293.03 125 500 125C706.96 125 875 293.03 875 500Z" id="bvPlE6Y9o"></path><path d="M637.48 342.08C637.48 371.67 570.27 395.69 487.48 395.69C404.69 395.69 337.48 371.67 337.48 342.08C337.48 312.48 404.69 288.46 487.48 288.46C570.27 288.46 637.48 312.48 637.48 342.08Z" id="e84z0wga3"></path><path d="M337.49 284.67L637.49 284.67L637.49 344.8L337.49 344.8L337.49 284.67Z" id="blh6ou4IC"></path><path d="M637.49 282.04C637.49 311.63 570.28 335.66 487.49 335.66C404.7 335.66 337.49 311.63 337.49 282.04C337.49 252.45 404.7 228.43 487.49 228.43C570.28 228.43 637.49 252.45 637.49 282.04Z" id="i1TnTO5fXD"></path><clipPath id="clipc25nvWWq8a"><use xlink:href="#i1TnTO5fXD" opacity="1"></use></clipPath><path d="M606.6 693.88C606.6 723.47 539.39 747.49 456.6 747.49C373.81 747.49 306.6 723.47 306.6 693.88C306.6 664.28 373.81 640.26 456.6 640.26C539.39 640.26 606.6 664.28 606.6 693.88Z" id="a3qC2X0qEo"></path><path d="M306.61 636.47L606.61 636.47L606.61 696.6L306.61 696.6L306.61 636.47Z" id="dweVz5rfy"></path><path d="M606.61 633.84C606.61 663.43 539.39 687.46 456.61 687.46C373.82 687.46 306.61 663.43 306.61 633.84C306.61 604.25 373.82 580.23 456.61 580.23C539.39 580.23 606.61 604.25 606.61 633.84Z" id="d3Yd98TP5n"></path><clipPath id="clipbpTVNxtqS"><use xlink:href="#d3Yd98TP5n" opacity="1"></use></clipPath><path d="M768.37 521.1C768.37 550.69 701.15 574.72 618.37 574.72C535.58 574.72 468.37 550.69 468.37 521.1C468.37 491.51 535.58 467.49 618.37 467.49C701.15 467.49 768.37 491.51 768.37 521.1Z" id="b45cUlUZL"></path><path d="M468.37 463.7L768.37 463.7L768.37 523.82L468.37 523.82L468.37 463.7Z" id="aAFAGebB"></path><path d="M768.37 461.07C768.37 490.66 701.16 514.69 618.37 514.69C535.59 514.69 468.37 490.66 468.37 461.07C468.37 431.48 535.59 407.46 618.37 407.46C701.16 407.46 768.37 431.48 768.37 461.07Z" id="b2kG2sXCiq"></path><clipPath id="clipbY5RTzntR"><use xlink:href="#b2kG2sXCiq" opacity="1"></use></clipPath></defs><g><g><g><g><use xlink:href="#bvPlE6Y9o" opacity="1" fill-opacity="0" stroke="#ffcf00" stroke-width="70" stroke-opacity="1"></use></g></g><g><g><use xlink:href="#e84z0wga3" opacity="1" fill="#ffcf00" fill-opacity="1"></use></g><g><use xlink:href="#blh6ou4IC" opacity="1" fill="#ffcf00" fill-opacity="1"></use></g><g><use xlink:href="#i1TnTO5fXD" opacity="1" fill="#ffcf00" fill-opacity="1"></use><g clip-path="url(#clipc25nvWWq8a)"><use xlink:href="#i1TnTO5fXD" opacity="1" fill-opacity="0" stroke="#d9b000" stroke-width="4" stroke-opacity="1"></use></g></g></g><g><g><use xlink:href="#a3qC2X0qEo" opacity="1" fill="#ffcf00" fill-opacity="1"></use></g><g><use xlink:href="#dweVz5rfy" opacity="1" fill="#ffcf00" fill-opacity="1"></use></g><g><use xlink:href="#d3Yd98TP5n" opacity="1" fill="#ffcf00" fill-opacity="1"></use><g clip-path="url(#clipbpTVNxtqS)"><use xlink:href="#d3Yd98TP5n" opacity="1" fill-opacity="0" stroke="#d9b000" stroke-width="4" stroke-opacity="1"></use></g></g></g><g><g><use xlink:href="#b45cUlUZL" opacity="1" fill="#ffcf00" fill-opacity="1"></use></g><g><use xlink:href="#aAFAGebB" opacity="1" fill="#ffcf00" fill-opacity="1"></use></g><g><use xlink:href="#b2kG2sXCiq" opacity="1" fill="#ffcf00" fill-opacity="1"></use><g clip-path="url(#clipbY5RTzntR)"><use xlink:href="#b2kG2sXCiq" opacity="1" fill-opacity="0" stroke="#d9b000" stroke-width="4" stroke-opacity="1"></use></g></g></g></g></g></svg>